<svg version="1.1" id="Layer_1" xmlns="http://www.w3.org/2000/svg" xmlns:xlink="http://www.w3.org/1999/xlink" x="0px" y="0px"
	 width="100%" viewBox="0 0 1205 901" enable-background="new 0 0 1205 901" xml:space="preserve">
<path fill="#000000" opacity="1.000000" stroke="none" 
	d="
M1062.000000,902.000000 
	C1024.312500,902.000000 986.624878,902.000000 948.468140,901.654541 
	C947.701721,900.523071 947.404541,899.737183 947.054199,898.585754 
	C939.994202,884.778015 933.002502,871.327820 925.976868,857.895447 
	C915.619995,838.093811 905.241943,818.303223 894.867188,798.510986 
	C880.553223,771.203857 866.268860,743.880920 851.900269,716.602539 
	C845.973755,705.351379 839.861267,694.198059 833.897583,682.668945 
	C833.236816,681.247498 832.511780,680.157288 831.786133,678.712524 
	C820.622803,657.140015 809.461426,635.921326 798.297180,614.704224 
	C789.185486,597.388000 780.056030,580.081116 770.960144,562.756592 
	C756.933533,536.040833 742.963989,509.294952 728.898376,482.599731 
	C722.971069,471.350189 716.860596,460.197144 710.897705,448.668945 
	C710.236938,447.247467 709.511902,446.157257 708.786194,444.712494 
	C708.591614,444.092987 708.361450,443.847321 708.209229,443.560303 
	C701.746338,431.375885 695.290283,419.187836 688.897644,406.668976 
	C688.236877,405.247498 687.511902,404.157288 686.786133,402.712524 
	C678.542969,386.673828 670.332336,370.972839 662.046143,355.311890 
	C657.035889,345.842590 651.908264,336.435364 646.897644,326.669006 
	C646.236877,325.247528 645.511841,324.157318 644.786133,322.712524 
	C639.235901,311.730347 633.720337,301.084808 628.122986,290.482483 
	C625.194397,284.935120 622.122131,279.463593 619.059692,273.606384 
	C618.289917,271.842621 617.575134,270.430267 616.796570,268.891815 
	C616.065369,269.554108 615.565247,269.818390 615.347229,270.231506 
	C603.195251,293.260468 591.050476,316.293274 578.942749,339.345581 
	C572.662598,351.302673 566.469482,363.305450 560.206238,375.271484 
	C551.137695,392.597229 542.015625,409.895081 533.021851,427.259460 
	C532.497009,428.272827 532.913147,429.773621 532.944946,431.412720 
	C549.721191,463.518555 566.443909,495.259186 583.101074,527.303162 
	C583.321167,528.087219 583.606812,528.567932 583.945435,529.408569 
	C585.091370,531.741943 586.209473,533.701965 587.273560,535.690918 
	C596.243530,552.457581 605.203552,569.229492 614.101013,586.303162 
	C614.321167,587.087219 614.606873,587.567932 614.945435,588.408569 
	C619.050415,596.348083 623.092285,603.933167 627.156860,611.506042 
	C633.151672,622.675171 639.162598,633.835632 645.101074,645.303162 
	C645.321167,646.087219 645.606873,646.567932 645.945435,647.408569 
	C646.711853,649.024719 647.464233,650.260620 648.133057,651.540161 
	C656.504822,667.555786 664.843323,683.588928 673.246826,699.587830 
	C674.755737,702.460632 676.520142,705.199280 678.102112,708.327148 
	C678.677612,709.474487 679.317627,710.294556 679.985779,711.478088 
	C683.064819,717.560974 686.115723,723.280396 689.102112,729.327148 
	C689.677612,730.474548 690.317627,731.294556 690.985779,732.478088 
	C693.970947,738.575073 696.927979,744.308533 699.927734,750.362610 
	C699.647400,751.177734 699.324341,751.672180 698.537109,752.096680 
	C550.377502,752.018005 402.682037,752.008911 254.986542,752.007324 
	C253.991058,752.007324 252.995575,752.111267 251.669067,752.098877 
	C250.892105,752.076294 250.446152,752.121460 249.736130,752.050964 
	C249.259155,751.623230 249.046249,751.311218 248.990738,750.676514 
	C252.780731,743.820374 256.516357,737.341736 260.026154,730.742981 
	C269.742126,712.476074 279.376343,694.165588 289.020142,675.860352 
	C302.079315,651.072388 315.135681,626.282776 328.156525,601.474670 
	C334.518707,589.353027 340.797852,577.187805 347.422974,564.870300 
	C348.525452,562.813232 349.319489,560.928284 350.422913,558.873535 
	C355.859711,548.816589 360.987152,538.929504 366.422974,528.870361 
	C367.525208,526.813538 368.318970,524.928711 369.422241,522.874146 
	C384.192627,495.150391 398.653564,467.596405 413.422974,439.870239 
	C414.526855,437.811920 415.322235,435.925812 416.341614,433.973389 
	C416.654846,433.195282 416.744080,432.483429 416.900574,431.663940 
	C417.012970,431.373718 416.967316,431.217743 416.936584,430.817322 
	C424.066376,417.378357 431.090454,404.210388 438.423004,390.870239 
	C439.526855,388.811920 440.322205,386.925842 441.426605,384.869781 
	C446.861938,374.814026 451.988220,364.928223 457.422974,354.870239 
	C458.526825,352.811920 459.322174,350.925812 460.426575,348.869812 
	C466.500854,337.739716 472.275726,326.784607 478.029449,315.818329 
	C492.045441,289.104675 506.044617,262.382141 520.064514,235.670517 
	C528.400940,219.787338 536.763611,203.917969 545.422974,187.870209 
	C546.526855,185.811951 547.322144,183.925858 548.426514,181.869965 
	C551.796936,175.948288 554.828308,170.180130 557.933044,164.451721 
	C559.416748,161.714264 560.089722,159.155197 557.054321,156.585968 
	C547.364319,137.624680 537.773987,119.004578 528.066650,100.445641 
	C524.463379,93.556648 520.585876,86.811073 516.897644,79.668854 
	C516.236877,78.247437 515.511902,77.157265 514.786194,75.712509 
	C511.197113,68.606949 507.592438,61.864532 504.023376,55.103317 
	C495.378357,38.726162 486.749939,22.340223 478.051697,5.556931 
	C477.659058,3.770686 477.329529,2.385343 477.000000,1.000000 
	C514.354248,1.000000 551.708435,1.000000 589.538818,1.373312 
	C590.066650,2.242864 589.973572,2.816253 590.190979,3.224165 
	C597.192078,16.359274 604.297119,29.439390 611.235107,42.607544 
	C629.052185,76.423882 646.905945,110.222008 664.439453,144.185165 
	C666.756226,148.672897 669.209900,150.122604 674.193542,150.118622 
	C851.462280,149.976929 1028.731079,150.000000 1206.000000,150.000000 
	C1206.000000,225.020889 1206.000000,300.041779 1205.694824,375.647125 
	C1202.111816,376.154449 1198.833862,376.010162 1195.556030,376.009888 
	C1061.289795,375.998566 927.023560,376.000183 792.757324,376.000183 
	C791.005981,376.000183 789.254639,376.000183 786.840393,376.000183 
	C787.826538,378.311157 788.357178,379.843323 789.104004,381.261688 
	C801.743835,405.265869 814.418152,429.251862 827.068726,453.250336 
	C838.091797,474.161438 849.042053,495.111115 860.145508,515.979370 
	C862.738953,520.853577 864.762146,526.718872 872.168884,526.012329 
	C873.654297,525.870605 875.165344,525.999634 876.664551,525.999634 
	C986.443054,526.000000 1096.221558,526.000000 1206.000000,526.000000 
	C1206.000000,601.020874 1206.000000,676.041809 1205.531372,751.531372 
	C1131.697510,752.000000 1058.332397,752.000000 984.236206,752.000000 
	C985.286682,754.287598 985.893188,755.796997 986.650208,757.226807 
	C992.377014,768.043762 998.202515,778.809021 1003.864807,789.659485 
	C1013.128479,807.411072 1022.256348,825.233459 1031.514893,842.987732 
	C1035.336426,850.316040 1039.468506,857.483276 1043.245239,864.833740 
	C1049.587036,877.176208 1055.757446,889.606567 1062.000000,902.000000 
z"/>
<path fill="#FE5000" opacity="1.000000" stroke="none" 
	d="
M441.117554,385.039734 
	C440.322205,386.925842 439.526855,388.811920 438.020660,390.866211 
	C431.222046,391.740845 428.326508,396.470917 428.770813,404.837708 
	C426.962433,406.056274 424.318054,406.851532 423.617645,408.481903 
	C420.669525,415.344238 418.279694,422.448120 415.785950,429.499115 
	C415.658142,429.860443 416.461182,430.551056 416.830841,431.088348 
	C416.967316,431.217743 417.012970,431.373718 416.601837,431.752380 
	C416.196442,432.645538 416.157013,433.342621 416.117584,434.039703 
	C415.322235,435.925812 414.526855,437.811920 413.010864,439.863892 
	C405.869781,440.435425 404.284241,442.954681 404.663818,449.859589 
	C401.496552,454.012482 399.529785,457.031525 397.124878,459.647797 
	C392.828369,464.321960 394.730347,471.063019 390.638733,476.222778 
	C385.876282,482.228455 384.819702,490.530609 379.981812,497.018097 
	C375.836975,502.576141 373.200134,509.311371 370.280884,515.701599 
	C369.288635,517.873657 369.468506,520.581116 369.112793,523.043945 
	C368.318970,524.928711 367.525208,526.813538 366.056122,528.899292 
	C358.530701,531.646240 358.128082,538.635742 355.193787,543.880615 
	C354.239563,545.586121 353.598846,547.611328 352.262146,548.930237 
	C348.864166,552.282837 347.912598,555.913330 350.113525,559.043274 
	C349.319489,560.928284 348.525452,562.813232 347.048096,564.896362 
	C339.751984,567.277283 339.451538,573.675293 337.192261,578.778687 
	C336.632050,580.044128 335.912476,581.250061 335.166992,582.420227 
	C333.861786,584.468811 332.173431,586.330872 331.191681,588.516479 
	C328.920746,593.572021 327.015076,598.790649 324.853210,603.897400 
	C324.565826,604.576233 323.538727,604.903259 323.046600,605.541565 
	C321.755157,607.216736 320.254517,608.833374 319.410583,610.728638 
	C317.826721,614.285645 316.913239,618.151367 315.223053,621.648010 
	C313.594879,625.016357 311.138641,627.978027 309.420654,631.311401 
	C308.064850,633.942017 307.616516,637.056213 306.173248,639.622864 
	C302.086121,646.891052 297.728851,654.008789 293.414001,661.147156 
	C289.345459,667.877869 288.217163,676.249023 281.824707,681.715881 
	C280.912476,682.496033 280.646271,684.065918 280.157410,685.300476 
	C278.539978,689.385193 277.700195,694.029663 275.186890,697.448425 
	C271.447296,702.535339 267.494110,707.225586 266.782501,713.822266 
	C266.659790,714.960022 265.515533,716.029663 264.731995,717.044922 
	C263.238342,718.980164 261.501892,720.745667 260.156677,722.774292 
	C257.020538,727.503601 257.440491,734.022278 252.605499,737.947998 
	C252.284515,738.208618 252.353561,738.903137 252.131805,739.340271 
	C250.989731,741.591797 249.535553,743.733154 248.748276,746.098694 
	C248.261688,747.560791 248.771072,749.354370 248.833344,750.999146 
	C249.046249,751.311218 249.259155,751.623230 249.827087,752.253052 
	C250.788132,752.436096 251.394119,752.301392 252.000092,752.166626 
	C252.995575,752.111267 253.991058,752.007324 254.986542,752.007324 
	C402.682037,752.008911 550.377502,752.018005 698.673767,752.344482 
	C700.028931,752.634033 700.783325,752.605957 701.537720,752.577881 
	C700.986816,751.732605 700.435913,750.887268 699.885010,750.041992 
	C696.927979,744.308533 693.970947,738.575073 690.959106,732.155396 
	C690.325134,730.646118 689.745850,729.822937 689.166626,728.999817 
	C686.115723,723.280396 683.064819,717.560974 679.959106,711.155396 
	C679.325073,709.646118 678.745850,708.822998 678.166626,707.999817 
	C676.520142,705.199280 674.755737,702.460632 673.246826,699.587830 
	C664.843323,683.588928 656.504822,667.555786 648.133057,651.540161 
	C647.464233,650.260620 646.711853,649.024719 646.068787,647.218994 
	C645.815002,646.112915 645.490845,645.556396 645.166626,644.999817 
	C639.162598,633.835632 633.151672,622.675171 627.156860,611.506042 
	C623.092285,603.933167 619.050415,596.348083 615.068787,588.218994 
	C614.815002,587.112915 614.490845,586.556396 614.166626,585.999817 
	C605.203552,569.229492 596.243530,552.457581 587.273560,535.690918 
	C586.209473,533.701965 585.091370,531.741943 584.068787,529.218994 
	C583.815002,528.112915 583.490845,527.556396 583.166626,526.999817 
	C566.443909,495.259186 549.721191,463.518555 533.225098,431.209412 
	C534.149963,429.721832 534.995056,428.880005 535.525208,427.872498 
	C549.683350,400.965088 563.781616,374.026184 577.948853,347.123566 
	C590.178101,323.901062 602.442871,300.696960 614.831970,277.559692 
	C615.649719,276.032532 617.659424,275.143616 619.114746,273.957825 
	C622.122131,279.463593 625.194397,284.935120 628.122986,290.482483 
	C633.720337,301.084808 639.235901,311.730347 644.696045,323.081390 
	C645.348816,324.869995 646.091064,325.935120 646.833374,327.000244 
	C651.908264,336.435364 657.035889,345.842590 662.046143,355.311890 
	C670.332336,370.972839 678.542969,386.673828 686.696045,403.081390 
	C687.348816,404.869995 688.091064,405.935120 688.833374,407.000244 
	C695.290283,419.187836 701.746338,431.375885 708.209229,443.560303 
	C708.361450,443.847321 708.591614,444.092987 708.696045,445.081390 
	C709.348816,446.869995 710.091064,447.935120 710.833374,449.000244 
	C716.860596,460.197144 722.971069,471.350189 728.898376,482.599731 
	C742.963989,509.294952 756.933533,536.040833 770.960144,562.756592 
	C780.056030,580.081116 789.185486,597.388000 798.297180,614.704224 
	C809.461426,635.921326 820.622803,657.140015 831.696045,679.081421 
	C832.348816,680.869934 833.091125,681.935120 833.833374,683.000244 
	C839.861267,694.198059 845.973755,705.351379 851.900269,716.602539 
	C866.268860,743.880920 880.553223,771.203857 894.867188,798.510986 
	C905.241943,818.303223 915.619995,838.093811 925.976868,857.895447 
	C933.002502,871.327820 939.994202,884.778015 946.859741,898.852661 
	C946.479004,900.323364 946.239502,901.161682 946.000000,902.000000 
	C632.645752,902.000000 319.291534,902.000000 5.480667,901.613159 
	C7.349258,896.149170 9.448432,890.953552 12.036584,886.014221 
	C28.188181,855.189575 44.463703,824.429993 60.670120,793.634033 
	C81.141884,754.732971 101.580078,715.814270 122.045540,676.909851 
	C138.557144,645.521545 155.091888,614.145386 171.608810,582.759888 
	C191.822723,544.349304 212.025742,505.932953 232.239395,467.522217 
	C242.009766,448.956238 251.799561,430.400452 261.570160,411.834595 
	C278.449860,379.760193 295.328918,347.685394 312.194122,315.603394 
	C326.115326,289.121704 340.004944,262.623444 353.929596,236.143616 
	C363.591461,217.770203 373.288300,199.415176 382.970886,181.052658 
	C392.601105,162.789352 402.271332,144.547043 411.855438,126.259598 
	C427.311279,96.768295 442.690033,67.236633 458.146118,37.745464 
	C463.089539,28.313093 468.065796,18.893549 473.298431,9.621294 
	C474.208893,8.007934 476.474884,7.159531 478.114807,5.957828 
	C486.749939,22.340223 495.378357,38.726162 504.023376,55.103317 
	C507.592438,61.864532 511.197113,68.606949 514.696045,76.081390 
	C515.348816,77.869942 516.091064,78.935028 516.833374,80.000107 
	C520.585876,86.811073 524.463379,93.556648 528.066650,100.445641 
	C537.773987,119.004578 547.364319,137.624680 556.809692,156.832047 
	C555.280640,160.543945 553.123230,163.578644 552.867920,166.765717 
	C552.668518,169.255356 552.575989,170.312134 550.138550,171.405533 
	C545.025513,173.699081 544.225281,178.876556 548.117493,182.039780 
	C547.322144,183.925858 546.526855,185.811951 545.011108,187.863892 
	C537.842407,188.436401 534.327087,194.320541 534.757385,203.987045 
	C528.871643,205.140198 525.053650,214.923553 525.823669,220.881882 
	C519.361633,223.908707 516.993347,228.354568 516.657288,237.414307 
	C508.482666,243.597061 505.080750,251.519470 504.636658,261.063019 
	C497.878876,264.627686 494.628754,270.134094 495.884064,277.945190 
	C489.658142,279.270782 484.549683,289.955566 485.810516,296.934448 
	C479.488892,300.251740 475.740417,307.317291 475.642670,316.100067 
	C469.914856,318.419861 465.768982,326.293488 465.630646,335.335052 
	C464.765015,335.608002 463.776886,335.791931 462.905396,336.215698 
	C458.391846,338.410736 456.711578,346.245605 460.117554,349.039734 
	C459.322174,350.925812 458.526825,352.811920 457.010864,354.863892 
	C449.860229,355.424866 448.034363,358.314178 448.879120,367.110291 
	C441.294312,368.471313 441.532043,375.790527 438.890228,380.933685 
	C438.488983,381.714874 440.319366,383.642426 441.117554,385.039734 
z"/>
<path fill="#000000" opacity="1.000000" stroke="none" 
	d="
M0.999994,897.000000 
	C1.000000,598.424805 1.000000,299.849640 1.000000,1.000000 
	C158.360092,1.000000 315.720337,1.000000 473.532776,1.370638 
	C465.008545,18.730564 456.003387,35.704750 447.063477,52.713196 
	C437.299042,71.290260 427.603271,89.903374 417.862549,108.492912 
	C403.558441,135.791443 389.233063,163.078842 374.932190,190.379074 
	C366.094269,207.250534 357.349365,224.171036 348.446411,241.008041 
	C337.705200,261.321442 326.795502,281.545715 316.043427,301.853394 
	C306.603638,319.682526 297.277985,337.572144 287.906769,355.437592 
	C273.577179,382.755798 259.233032,410.066437 244.931107,437.399139 
	C235.418915,455.578125 226.056442,473.835876 216.471146,491.976044 
	C203.055634,517.364929 189.451843,542.654358 176.010590,568.029724 
	C165.850922,587.209900 155.848709,606.473328 145.724014,625.672058 
	C132.551712,650.649780 119.296555,675.583801 106.135849,700.567566 
	C96.326256,719.189819 86.632797,737.873291 76.846878,756.508057 
	C62.350693,784.112305 47.781319,811.678223 33.315105,839.298157 
	C24.314825,856.481995 15.518206,873.772888 6.437056,890.913452 
	C5.200556,893.247375 2.840057,894.985840 0.999994,897.000000 
z"/>
<path fill="#56565A" opacity="1.000000" stroke="none" 
	d="
M1206.000000,149.531342 
	C1028.731079,150.000000 851.462280,149.976929 674.193542,150.118622 
	C669.209900,150.122604 666.756226,148.672897 664.439453,144.185165 
	C646.905945,110.222008 629.052185,76.423882 611.235107,42.607544 
	C604.297119,29.439390 597.192078,16.359274 590.190979,3.224165 
	C589.973572,2.816253 590.066650,2.242864 590.007507,1.373312 
	C795.215881,1.000000 1000.431824,1.000000 1206.000000,1.000000 
	C1206.000000,50.353668 1206.000000,99.708176 1206.000000,149.531342 
z"/>
<path fill="#56565A" opacity="1.000000" stroke="none" 
	d="
M1206.000000,525.531372 
	C1096.221558,526.000000 986.443054,526.000000 876.664551,525.999634 
	C875.165344,525.999634 873.654297,525.870605 872.168884,526.012329 
	C864.762146,526.718872 862.738953,520.853577 860.145508,515.979370 
	C849.042053,495.111115 838.091797,474.161438 827.068726,453.250336 
	C814.418152,429.251862 801.743835,405.265869 789.104004,381.261688 
	C788.357178,379.843323 787.826538,378.311157 786.840393,376.000183 
	C789.254639,376.000183 791.005981,376.000183 792.757324,376.000183 
	C927.023560,376.000183 1061.289795,375.998566 1195.556030,376.009888 
	C1198.833862,376.010162 1202.111816,376.154449 1205.694824,376.115784 
	C1206.000000,425.687561 1206.000000,475.375122 1206.000000,525.531372 
z"/>
<path fill="#56565A" opacity="1.000000" stroke="none" 
	d="
M1062.468628,902.000000 
	C1055.757446,889.606567 1049.587036,877.176208 1043.245239,864.833740 
	C1039.468506,857.483276 1035.336426,850.316040 1031.514893,842.987732 
	C1022.256348,825.233459 1013.128479,807.411072 1003.864807,789.659485 
	C998.202515,778.809021 992.377014,768.043762 986.650208,757.226807 
	C985.893188,755.796997 985.286682,754.287598 984.236206,752.000000 
	C1058.332397,752.000000 1131.697510,752.000000 1205.531372,752.000000 
	C1206.000000,801.925537 1206.000000,851.851013 1206.000000,902.000000 
	C1158.312622,902.000000 1110.625000,902.000000 1062.468628,902.000000 
z"/>
<path fill="#FE5000" opacity="1.000000" stroke="none" 
	d="
M0.999994,897.500000 
	C2.840057,894.985840 5.200556,893.247375 6.437056,890.913452 
	C15.518206,873.772888 24.314825,856.481995 33.315105,839.298157 
	C47.781319,811.678223 62.350693,784.112305 76.846878,756.508057 
	C86.632797,737.873291 96.326256,719.189819 106.135849,700.567566 
	C119.296555,675.583801 132.551712,650.649780 145.724014,625.672058 
	C155.848709,606.473328 165.850922,587.209900 176.010590,568.029724 
	C189.451843,542.654358 203.055634,517.364929 216.471146,491.976044 
	C226.056442,473.835876 235.418915,455.578125 244.931107,437.399139 
	C259.233032,410.066437 273.577179,382.755798 287.906769,355.437592 
	C297.277985,337.572144 306.603638,319.682526 316.043427,301.853394 
	C326.795502,281.545715 337.705200,261.321442 348.446411,241.008041 
	C357.349365,224.171036 366.094269,207.250534 374.932190,190.379074 
	C389.233063,163.078842 403.558441,135.791443 417.862549,108.492912 
	C427.603271,89.903374 437.299042,71.290260 447.063477,52.713196 
	C456.003387,35.704750 465.008545,18.730564 473.992462,1.370638 
	C474.750000,1.000000 475.500000,1.000000 476.625000,1.000000 
	C477.329529,2.385343 477.659058,3.770686 478.051697,5.556925 
	C476.474884,7.159531 474.208893,8.007934 473.298431,9.621294 
	C468.065796,18.893549 463.089539,28.313093 458.146118,37.745464 
	C442.690033,67.236633 427.311279,96.768295 411.855438,126.259598 
	C402.271332,144.547043 392.601105,162.789352 382.970886,181.052658 
	C373.288300,199.415176 363.591461,217.770203 353.929596,236.143616 
	C340.004944,262.623444 326.115326,289.121704 312.194122,315.603394 
	C295.328918,347.685394 278.449860,379.760193 261.570160,411.834595 
	C251.799561,430.400452 242.009766,448.956238 232.239395,467.522217 
	C212.025742,505.932953 191.822723,544.349304 171.608810,582.759888 
	C155.091888,614.145386 138.557144,645.521545 122.045540,676.909851 
	C101.580078,715.814270 81.141884,754.732971 60.670120,793.634033 
	C44.463703,824.429993 28.188181,855.189575 12.036584,886.014221 
	C9.448432,890.953552 7.349258,896.149170 5.012010,901.613159 
	C3.745089,902.000000 2.490177,902.000000 1.000000,902.000000 
	C1.000000,900.669617 1.000000,899.334778 0.999994,897.500000 
z"/>
<path fill="#FE5000" opacity="1.000000" stroke="none" 
	d="
M946.333313,902.000000 
	C946.239502,901.161682 946.479004,900.323364 946.912964,899.218140 
	C947.404541,899.737183 947.701721,900.523071 947.999451,901.654541 
	C947.555542,902.000000 947.111084,902.000000 946.333313,902.000000 
z"/>
<path fill="#FE5000" opacity="1.000000" stroke="none" 
	d="
M460.426575,348.869812 
	C456.711578,346.245605 458.391846,338.410736 462.905396,336.215698 
	C463.776886,335.791931 464.765015,335.608002 465.630646,335.335052 
	C465.768982,326.293488 469.914856,318.419861 475.642670,316.100067 
	C475.740417,307.317291 479.488892,300.251740 485.810516,296.934448 
	C484.549683,289.955566 489.658142,279.270782 495.884064,277.945190 
	C494.628754,270.134094 497.878876,264.627686 504.636658,261.063019 
	C505.080750,251.519470 508.482666,243.597061 516.657288,237.414307 
	C516.993347,228.354568 519.361633,223.908707 525.823669,220.881882 
	C525.053650,214.923553 528.871643,205.140198 534.757385,203.987045 
	C534.327087,194.320541 537.842407,188.436401 544.702637,188.036072 
	C536.763611,203.917969 528.400940,219.787338 520.064514,235.670517 
	C506.044617,262.382141 492.045441,289.104675 478.029449,315.818329 
	C472.275726,326.784607 466.500854,337.739716 460.426575,348.869812 
z"/>
<path fill="#FE5000" opacity="1.000000" stroke="none" 
	d="
M248.990738,750.676514 
	C248.771072,749.354370 248.261688,747.560791 248.748276,746.098694 
	C249.535553,743.733154 250.989731,741.591797 252.131805,739.340271 
	C252.353561,738.903137 252.284515,738.208618 252.605499,737.947998 
	C257.440491,734.022278 257.020538,727.503601 260.156677,722.774292 
	C261.501892,720.745667 263.238342,718.980164 264.731995,717.044922 
	C265.515533,716.029663 266.659790,714.960022 266.782501,713.822266 
	C267.494110,707.225586 271.447296,702.535339 275.186890,697.448425 
	C277.700195,694.029663 278.539978,689.385193 280.157410,685.300476 
	C280.646271,684.065918 280.912476,682.496033 281.824707,681.715881 
	C288.217163,676.249023 289.345459,667.877869 293.414001,661.147156 
	C297.728851,654.008789 302.086121,646.891052 306.173248,639.622864 
	C307.616516,637.056213 308.064850,633.942017 309.420654,631.311401 
	C311.138641,627.978027 313.594879,625.016357 315.223053,621.648010 
	C316.913239,618.151367 317.826721,614.285645 319.410583,610.728638 
	C320.254517,608.833374 321.755157,607.216736 323.046600,605.541565 
	C323.538727,604.903259 324.565826,604.576233 324.853210,603.897400 
	C327.015076,598.790649 328.920746,593.572021 331.191681,588.516479 
	C332.173431,586.330872 333.861786,584.468811 335.166992,582.420227 
	C335.912476,581.250061 336.632050,580.044128 337.192261,578.778687 
	C339.451538,573.675293 339.751984,567.277283 346.739685,565.068359 
	C340.797852,577.187805 334.518707,589.353027 328.156525,601.474670 
	C315.135681,626.282776 302.079315,651.072388 289.020142,675.860352 
	C279.376343,694.165588 269.742126,712.476074 260.026154,730.742981 
	C256.516357,737.341736 252.780731,743.820374 248.990738,750.676514 
z"/>
<path fill="#FE5000" opacity="1.000000" stroke="none" 
	d="
M619.059692,273.606384 
	C617.659424,275.143616 615.649719,276.032532 614.831970,277.559692 
	C602.442871,300.696960 590.178101,323.901062 577.948853,347.123566 
	C563.781616,374.026184 549.683350,400.965088 535.525208,427.872498 
	C534.995056,428.880005 534.149963,429.721832 533.171509,430.844238 
	C532.913147,429.773621 532.497009,428.272827 533.021851,427.259460 
	C542.015625,409.895081 551.137695,392.597229 560.206238,375.271484 
	C566.469482,363.305450 572.662598,351.302673 578.942749,339.345581 
	C591.050476,316.293274 603.195251,293.260468 615.347229,270.231506 
	C615.565247,269.818390 616.065369,269.554108 616.796570,268.891815 
	C617.575134,270.430267 618.289917,271.842621 619.059692,273.606384 
z"/>
<path fill="#FE5000" opacity="1.000000" stroke="none" 
	d="
M369.422241,522.874146 
	C369.468506,520.581116 369.288635,517.873657 370.280884,515.701599 
	C373.200134,509.311371 375.836975,502.576141 379.981812,497.018097 
	C384.819702,490.530609 385.876282,482.228455 390.638733,476.222778 
	C394.730347,471.063019 392.828369,464.321960 397.124878,459.647797 
	C399.529785,457.031525 401.496552,454.012482 404.663818,449.859589 
	C404.284241,442.954681 405.869781,440.435425 412.702362,440.036102 
	C398.653564,467.596405 384.192627,495.150391 369.422241,522.874146 
z"/>
<path fill="#FE5000" opacity="1.000000" stroke="none" 
	d="
M416.936584,430.817322 
	C416.461182,430.551056 415.658142,429.860443 415.785950,429.499115 
	C418.279694,422.448120 420.669525,415.344238 423.617645,408.481903 
	C424.318054,406.851532 426.962433,406.056274 428.770813,404.837708 
	C428.326508,396.470917 431.222046,391.740845 437.712158,391.038391 
	C431.090454,404.210388 424.066376,417.378357 416.936584,430.817322 
z"/>
<path fill="#FE5000" opacity="1.000000" stroke="none" 
	d="
M441.426605,384.869781 
	C440.319366,383.642426 438.488983,381.714874 438.890228,380.933685 
	C441.532043,375.790527 441.294312,368.471313 448.879120,367.110291 
	C448.034363,358.314178 449.860229,355.424866 456.702393,355.036102 
	C451.988220,364.928223 446.861938,374.814026 441.426605,384.869781 
z"/>
<path fill="#FE5000" opacity="1.000000" stroke="none" 
	d="
M548.426514,181.869965 
	C544.225281,178.876556 545.025513,173.699081 550.138550,171.405533 
	C552.575989,170.312134 552.668518,169.255356 552.867920,166.765717 
	C553.123230,163.578644 555.280640,160.543945 556.862976,157.197510 
	C560.089722,159.155197 559.416748,161.714264 557.933044,164.451721 
	C554.828308,170.180130 551.796936,175.948288 548.426514,181.869965 
z"/>
<path fill="#FE5000" opacity="1.000000" stroke="none" 
	d="
M350.422913,558.873535 
	C347.912598,555.913330 348.864166,552.282837 352.262146,548.930237 
	C353.598846,547.611328 354.239563,545.586121 355.193787,543.880615 
	C358.128082,538.635742 358.530701,531.646240 365.747681,529.071289 
	C360.987152,538.929504 355.859711,548.816589 350.422913,558.873535 
z"/>
<path fill="#FE5000" opacity="1.000000" stroke="none" 
	d="
M699.927734,750.362610 
	C700.435913,750.887268 700.986816,751.732605 701.537720,752.577881 
	C700.783325,752.605957 700.028931,752.634033 699.137939,752.414429 
	C699.324341,751.672180 699.647400,751.177734 699.927734,750.362610 
z"/>
<path fill="#FE5000" opacity="1.000000" stroke="none" 
	d="
M688.897644,406.668976 
	C688.091064,405.935120 687.348816,404.869995 686.696716,403.435974 
	C687.511902,404.157288 688.236877,405.247498 688.897644,406.668976 
z"/>
<path fill="#FE5000" opacity="1.000000" stroke="none" 
	d="
M646.897644,326.669006 
	C646.091064,325.935120 645.348816,324.869995 644.696716,323.435974 
	C645.511841,324.157318 646.236877,325.247528 646.897644,326.669006 
z"/>
<path fill="#FE5000" opacity="1.000000" stroke="none" 
	d="
M710.897705,448.668945 
	C710.091064,447.935120 709.348816,446.869995 708.696777,445.435944 
	C709.511902,446.157257 710.236938,447.247467 710.897705,448.668945 
z"/>
<path fill="#FE5000" opacity="1.000000" stroke="none" 
	d="
M516.897644,79.668861 
	C516.091064,78.935028 515.348816,77.869942 514.696716,76.435966 
	C515.511902,77.157265 516.236877,78.247437 516.897644,79.668861 
z"/>
<path fill="#FE5000" opacity="1.000000" stroke="none" 
	d="
M833.897583,682.668945 
	C833.091125,681.935120 832.348816,680.869934 831.696655,679.435913 
	C832.511780,680.157288 833.236816,681.247498 833.897583,682.668945 
z"/>
<path fill="#FE5000" opacity="1.000000" stroke="none" 
	d="
M416.341614,433.973389 
	C416.157013,433.342621 416.196442,432.645538 416.534607,431.860046 
	C416.744080,432.483429 416.654846,433.195282 416.341614,433.973389 
z"/>
<path fill="#FE5000" opacity="1.000000" stroke="none" 
	d="
M678.102112,708.327148 
	C678.745850,708.822998 679.325073,709.646118 679.931030,710.791870 
	C679.317627,710.294556 678.677612,709.474487 678.102112,708.327148 
z"/>
<path fill="#FE5000" opacity="1.000000" stroke="none" 
	d="
M689.102112,729.327148 
	C689.745850,729.822937 690.325134,730.646118 690.931030,731.791870 
	C690.317627,731.294556 689.677612,730.474548 689.102112,729.327148 
z"/>
<path fill="#FE5000" opacity="1.000000" stroke="none" 
	d="
M645.101074,645.303162 
	C645.490845,645.556396 645.815002,646.112915 646.015869,646.859070 
	C645.606873,646.567932 645.321167,646.087219 645.101074,645.303162 
z"/>
<path fill="#FE5000" opacity="1.000000" stroke="none" 
	d="
M614.101074,586.303162 
	C614.490845,586.556396 614.815002,587.112915 615.015869,587.859070 
	C614.606873,587.567932 614.321167,587.087219 614.101074,586.303162 
z"/>
<path fill="#FE5000" opacity="1.000000" stroke="none" 
	d="
M251.669067,752.098877 
	C251.394119,752.301392 250.788132,752.436096 250.091187,752.368774 
	C250.446152,752.121460 250.892105,752.076294 251.669067,752.098877 
z"/>
<path fill="#FE5000" opacity="1.000000" stroke="none" 
	d="
M583.101074,527.303162 
	C583.490845,527.556396 583.815002,528.112915 584.015869,528.859070 
	C583.606812,528.567932 583.321167,528.087219 583.101074,527.303162 
z"/>
</svg>